STARTFONT 2.1
COMMENT
COMMENT Converted from OpenType font "CircularStd-Book.otf" by "otf2bdf 3.0".
COMMENT
FONT -FreeType-Circular Std Book-Medium-R-Normal--15-110-100-100-P-77-ISO10646-1
SIZE 11 100 100
FONTBOUNDINGBOX 23 17 0 -3
STARTPROPERTIES 19
FOUNDRY "FreeType"
FAMILY_NAME "Circular Std Book"
WEIGHT_NAME "Medium"
SLANT "R"
SETWIDTH_NAME "Normal"
ADD_STYLE_NAME ""
PIXEL_SIZE 15
POINT_SIZE 110
RESOLUTION_X 100
RESOLUTION_Y 100
SPACING "P"
AVERAGE_WIDTH 77
CHARSET_REGISTRY "ISO10646"
CHARSET_ENCODING "1"
FONT_ASCENT 14
FONT_DESCENT 4
COPYRIGHT "Generated in 2013 by FontLab Studio. Copyright info pending."
_OTF_FONTFILE "CircularStd-Book.otf"
_OTF_PSNAME "CircularStd-Book"
ENDPROPERTIES
CHARS 332
STARTCHAR 0000
ENCODING 0
SWIDTH 0 0
DWIDTH 0 0
BBX 0 0 0 0
BITMAP
ENDCHAR
STARTCHAR 000D
ENCODING 13
SWIDTH 261 0
DWIDTH 4 0
BBX 0 0 0 0
BITMAP
ENDCHAR
STARTCHAR 0020
ENCODING 32
SWIDTH 261 0
DWIDTH 4 0
BBX 0 0 0 0
BITMAP
ENDCHAR
STARTCHAR 0021
ENCODING 33
SWIDTH 327 0
DWIDTH 5 0
BBX 2 11 1 0
BITMAP
C0
40
40
40
40
40
40
40
00
C0
C0
ENDCHAR
STARTCHAR 0022
ENCODING 34
SWIDTH 392 0
DWIDTH 6 0
BBX 4 4 1 6
BITMAP
B0
B0
90
90
ENDCHAR
STARTCHAR 0023
ENCODING 35
SWIDTH 720 0
DWIDTH 11 0
BBX 10 10 1 0
BITMAP
1100
1300
FFC0
3200
3200
2600
FF80
2400
6400
6400
ENDCHAR
STARTCHAR 0024
ENCODING 36
SWIDTH 589 0
DWIDTH 9 0
BBX 7 14 1 -2
BITMAP
10
10
7C
D6
D2
D0
78
3E
16
92
D6
7C
10
10
ENDCHAR
STARTCHAR 0025
ENCODING 37
SWIDTH 785 0
DWIDTH 12 0
BBX 11 10 1 0
BITMAP
7080
D900
9B00
DA00
7400
0DC0
0B60
1260
3360
61C0
ENDCHAR
STARTCHAR 0026
ENCODING 38
SWIDTH 720 0
DWIDTH 11 0
BBX 9 11 1 0
BITMAP
3800
6C00
4400
4C00
7800
3080
7980
CF00
C600
EF00
7980
ENDCHAR
STARTCHAR 0027
ENCODING 39
SWIDTH 196 0
DWIDTH 3 0
BBX 1 4 1 6
BITMAP
80
80
80
80
ENDCHAR
STARTCHAR 0028
ENCODING 40
SWIDTH 327 0
DWIDTH 5 0
BBX 3 14 1 -2
BITMAP
20
60
40
C0
80
80
80
80
80
80
C0
40
60
20
ENDCHAR
STARTCHAR 0029
ENCODING 41
SWIDTH 327 0
DWIDTH 5 0
BBX 4 14 0 -2
BITMAP
80
40
60
20
20
30
10
10
30
20
20
60
40
80
ENDCHAR
STARTCHAR 002A
ENCODING 42
SWIDTH 458 0
DWIDTH 7 0
BBX 5 6 1 5
BITMAP
20
20
F8
60
50
10
ENDCHAR
STARTCHAR 002B
ENCODING 43
SWIDTH 589 0
DWIDTH 9 0
BBX 7 7 1 1
BITMAP
10
10
10
FE
10
10
10
ENDCHAR
STARTCHAR 002C
ENCODING 44
SWIDTH 327 0
DWIDTH 5 0
BBX 2 4 1 -2
BITMAP
C0
C0
40
80
ENDCHAR
STARTCHAR 002D
ENCODING 45
SWIDTH 392 0
DWIDTH 6 0
BBX 4 1 1 4
BITMAP
F0
ENDCHAR
STARTCHAR 002E
ENCODING 46
SWIDTH 261 0
DWIDTH 4 0
BBX 2 2 1 0
BITMAP
C0
C0
ENDCHAR
STARTCHAR 002F
ENCODING 47
SWIDTH 458 0
DWIDTH 7 0
BBX 6 11 0 0
BITMAP
04
04
08
08
10
10
30
20
60
40
C0
ENDCHAR
STARTCHAR 0030
ENCODING 48
SWIDTH 589 0
DWIDTH 9 0
BBX 8 10 1 0
BITMAP
3C
66
C2
82
83
83
82
C2
66
3C
ENDCHAR
STARTCHAR 0031
ENCODING 49
SWIDTH 327 0
DWIDTH 5 0
BBX 4 10 0 0
BITMAP
10
30
F0
10
10
10
10
10
10
10
ENDCHAR
STARTCHAR 0032
ENCODING 50
SWIDTH 523 0
DWIDTH 8 0
BBX 6 10 1 0
BITMAP
78
CC
84
84
0C
18
70
C0
80
FC
ENDCHAR
STARTCHAR 0033
ENCODING 51
SWIDTH 523 0
DWIDTH 8 0
BBX 7 10 1 0
BITMAP
FE
0C
18
30
3C
06
06
86
CC
78
ENDCHAR
STARTCHAR 0034
ENCODING 52
SWIDTH 589 0
DWIDTH 9 0
BBX 8 10 1 0
BITMAP
1C
1C
3C
6C
4C
CC
8C
FF
0C
0C
ENDCHAR
STARTCHAR 0035
ENCODING 53
SWIDTH 523 0
DWIDTH 8 0
BBX 7 10 1 0
BITMAP
7C
40
40
C0
FC
46
06
86
CC
78
ENDCHAR
STARTCHAR 0036
ENCODING 54
SWIDTH 589 0
DWIDTH 9 0
BBX 7 10 1 0
BITMAP
1E
72
40
C0
BC
C6
C2
C2
66
3C
ENDCHAR
STARTCHAR 0037
ENCODING 55
SWIDTH 458 0
DWIDTH 7 0
BBX 7 10 0 0
BITMAP
FE
06
04
08
18
10
30
30
20
20
ENDCHAR
STARTCHAR 0038
ENCODING 56
SWIDTH 589 0
DWIDTH 9 0
BBX 7 10 1 0
BITMAP
78
CC
86
C4
78
CC
86
86
CC
78
ENDCHAR
STARTCHAR 0039
ENCODING 57
SWIDTH 589 0
DWIDTH 9 0
BBX 7 10 1 0
BITMAP
78
CC
86
86
C6
7A
06
04
9C
F8
ENDCHAR
STARTCHAR 003A
ENCODING 58
SWIDTH 261 0
DWIDTH 4 0
BBX 2 8 1 0
BITMAP
C0
C0
00
00
00
00
C0
C0
ENDCHAR
STARTCHAR 003B
ENCODING 59
SWIDTH 327 0
DWIDTH 5 0
BBX 2 10 1 -2
BITMAP
C0
C0
00
00
00
00
C0
C0
40
40
ENDCHAR
STARTCHAR 003C
ENCODING 60
SWIDTH 458 0
DWIDTH 7 0
BBX 6 7 1 1
BITMAP
04
18
E0
80
E0
18
04
ENDCHAR
STARTCHAR 003D
ENCODING 61
SWIDTH 589 0
DWIDTH 9 0
BBX 7 4 1 2
BITMAP
FE
00
00
FE
ENDCHAR
STARTCHAR 003E
ENCODING 62
SWIDTH 458 0
DWIDTH 7 0
BBX 6 7 1 1
BITMAP
80
E0
38
0C
38
E0
80
ENDCHAR
STARTCHAR 003F
ENCODING 63
SWIDTH 523 0
DWIDTH 8 0
BBX 6 11 1 0
BITMAP
78
CC
84
84
0C
18
30
20
00
20
30
ENDCHAR
STARTCHAR 0040
ENCODING 64
SWIDTH 850 0
DWIDTH 13 0
BBX 11 12 1 -1
BITMAP
1F00
30C0
4040
CF20
9120
9120
9120
9340
DDC0
4000
3080
1F00
ENDCHAR
STARTCHAR 0041
ENCODING 65
SWIDTH 720 0
DWIDTH 11 0
BBX 10 11 0 0
BITMAP
0C00
0E00
1A00
1B00
1300
3100
2180
3F80
60C0
40C0
C040
ENDCHAR
STARTCHAR 0042
ENCODING 66
SWIDTH 589 0
DWIDTH 9 0
BBX 7 11 1 0
BITMAP
FC
C6
C2
C2
C6
FC
C6
C2
C2
C6
FC
ENDCHAR
STARTCHAR 0043
ENCODING 67
SWIDTH 720 0
DWIDTH 11 0
BBX 10 11 1 0
BITMAP
1E00
7380
C080
C080
8000
8000
8000
C0C0
C080
7380
1E00
ENDCHAR
STARTCHAR 0044
ENCODING 68
SWIDTH 720 0
DWIDTH 11 0
BBX 9 11 1 0
BITMAP
FC00
C700
C180
C180
C080
C080
C080
C180
C180
C700
FC00
ENDCHAR
STARTCHAR 0045
ENCODING 69
SWIDTH 589 0
DWIDTH 9 0
BBX 7 11 1 0
BITMAP
FE
C0
C0
C0
C0
FC
C0
C0
C0
C0
FE
ENDCHAR
STARTCHAR 0046
ENCODING 70
SWIDTH 523 0
DWIDTH 8 0
BBX 7 11 1 0
BITMAP
FE
C0
C0
C0
C0
FC
C0
C0
C0
C0
C0
ENDCHAR
STARTCHAR 0047
ENCODING 71
SWIDTH 785 0
DWIDTH 12 0
BBX 10 11 1 0
BITMAP
1E00
7380
C0C0
C080
8000
8000
87C0
C0C0
C0C0
73C0
1EC0
ENDCHAR
STARTCHAR 0048
ENCODING 72
SWIDTH 720 0
DWIDTH 11 0
BBX 9 11 1 0
BITMAP
C180
C180
C180
C180
C180
FF80
C180
C180
C180
C180
C180
ENDCHAR
STARTCHAR 0049
ENCODING 73
SWIDTH 261 0
DWIDTH 4 0
BBX 2 11 1 0
BITMAP
C0
C0
C0
C0
C0
C0
C0
C0
C0
C0
C0
ENDCHAR
STARTCHAR 004A
ENCODING 74
SWIDTH 523 0
DWIDTH 8 0
BBX 7 11 0 0
BITMAP
06
06
06
06
06
06
06
C6
C6
6C
38
ENDCHAR
STARTCHAR 004B
ENCODING 75
SWIDTH 654 0
DWIDTH 10 0
BBX 9 11 1 0
BITMAP
C300
C300
C600
CC00
D800
F800
EC00
CC00
C600
C300
C180
ENDCHAR
STARTCHAR 004C
ENCODING 76
SWIDTH 523 0
DWIDTH 8 0
BBX 7 11 1 0
BITMAP
C0
C0
C0
C0
C0
C0
C0
C0
C0
C0
FE
ENDCHAR
STARTCHAR 004D
ENCODING 77
SWIDTH 916 0
DWIDTH 14 0
BBX 12 11 1 0
BITMAP
E030
E070
E070
F050
D0D0
D890
C990
CD10
CF10
C710
C610
ENDCHAR
STARTCHAR 004E
ENCODING 78
SWIDTH 785 0
DWIDTH 12 0
BBX 9 11 1 0
BITMAP
E080
E080
F080
D880
D880
CC80
C680
C680
C380
C180
C180
ENDCHAR
STARTCHAR 004F
ENCODING 79
SWIDTH 785 0
DWIDTH 12 0
BBX 11 11 1 0
BITMAP
1E00
7380
C0C0
C040
8040
8060
8040
C040
C0C0
7380
1E00
ENDCHAR
STARTCHAR 0050
ENCODING 80
SWIDTH 589 0
DWIDTH 9 0
BBX 8 11 1 0
BITMAP
FC
C6
C3
C3
C2
FE
C0
C0
C0
C0
C0
ENDCHAR
STARTCHAR 0051
ENCODING 81
SWIDTH 785 0
DWIDTH 12 0
BBX 11 12 1 -1
BITMAP
1E00
7380
C0C0
C040
8040
8060
8040
C640
C3C0
7380
1EC0
0040
ENDCHAR
STARTCHAR 0052
ENCODING 82
SWIDTH 589 0
DWIDTH 9 0
BBX 8 11 1 0
BITMAP
FC
C6
C3
C3
C2
FE
C8
CC
C4
C6
C2
ENDCHAR
STARTCHAR 0053
ENCODING 83
SWIDTH 589 0
DWIDTH 9 0
BBX 7 11 1 0
BITMAP
3C
66
C2
C0
E0
7C
06
02
82
E6
7C
ENDCHAR
STARTCHAR 0054
ENCODING 84
SWIDTH 589 0
DWIDTH 9 0
BBX 9 11 0 0
BITMAP
FF80
0800
0800
0800
0800
0800
0800
0800
0800
0800
0800
ENDCHAR
STARTCHAR 0055
ENCODING 85
SWIDTH 654 0
DWIDTH 10 0
BBX 8 11 1 0
BITMAP
C3
C3
C3
C3
C3
C3
C3
C3
C3
66
3C
ENDCHAR
STARTCHAR 0056
ENCODING 86
SWIDTH 654 0
DWIDTH 10 0
BBX 10 11 0 0
BITMAP
C0C0
4080
6180
6180
2100
3300
1200
1200
1E00
0C00
0C00
ENDCHAR
STARTCHAR 0057
ENCODING 87
SWIDTH 981 0
DWIDTH 15 0
BBX 15 11 0 0
BITMAP
C186
4386
4384
62C4
26CC
264C
3468
3C68
1C38
1830
1830
ENDCHAR
STARTCHAR 0058
ENCODING 88
SWIDTH 589 0
DWIDTH 9 0
BBX 9 11 0 0
BITMAP
4180
6100
3300
1600
1C00
0C00
1C00
3600
3300
6300
C180
ENDCHAR
STARTCHAR 0059
ENCODING 89
SWIDTH 589 0
DWIDTH 9 0
BBX 9 11 0 0
BITMAP
C180
6100
2300
3200
1E00
1C00
0800
0800
0800
0800
0800
ENDCHAR
STARTCHAR 005A
ENCODING 90
SWIDTH 654 0
DWIDTH 10 0
BBX 8 11 1 0
BITMAP
FF
03
06
0C
0C
18
30
60
C0
C0
FF
ENDCHAR
STARTCHAR 005B
ENCODING 91
SWIDTH 261 0
DWIDTH 4 0
BBX 3 14 1 -2
BITMAP
E0
C0
C0
C0
C0
C0
C0
C0
C0
C0
C0
C0
C0
E0
ENDCHAR
STARTCHAR 005C
ENCODING 92
SWIDTH 458 0
DWIDTH 7 0
BBX 6 11 0 0
BITMAP
C0
40
60
20
30
10
10
08
08
0C
04
ENDCHAR
STARTCHAR 005D
ENCODING 93
SWIDTH 261 0
DWIDTH 4 0
BBX 3 14 0 -2
BITMAP
E0
20
20
20
20
20
20
20
20
20
20
20
20
E0
ENDCHAR
STARTCHAR 005E
ENCODING 94
SWIDTH 523 0
DWIDTH 8 0
BBX 6 6 1 5
BITMAP
30
30
78
48
CC
84
ENDCHAR
STARTCHAR 005F
ENCODING 95
SWIDTH 523 0
DWIDTH 8 0
BBX 8 1 0 -1
BITMAP
FF
ENDCHAR
STARTCHAR 0060
ENCODING 96
SWIDTH 261 0
DWIDTH 4 0
BBX 2 3 1 8
BITMAP
C0
C0
40
ENDCHAR
STARTCHAR 0061
ENCODING 97
SWIDTH 523 0
DWIDTH 8 0
BBX 6 8 1 0
BITMAP
78
CC
84
3C
E4
8C
CC
74
ENDCHAR
STARTCHAR 0062
ENCODING 98
SWIDTH 589 0
DWIDTH 9 0
BBX 7 11 1 0
BITMAP
C0
C0
C0
FC
E6
C2
C2
C2
C2
E6
FC
ENDCHAR
STARTCHAR 0063
ENCODING 99
SWIDTH 523 0
DWIDTH 8 0
BBX 6 8 1 0
BITMAP
78
CC
84
80
80
84
CC
78
ENDCHAR
STARTCHAR 0064
ENCODING 100
SWIDTH 589 0
DWIDTH 9 0
BBX 7 11 1 0
BITMAP
06
06
06
7E
CE
86
86
86
86
CE
7E
ENDCHAR
STARTCHAR 0065
ENCODING 101
SWIDTH 523 0
DWIDTH 8 0
BBX 7 8 1 0
BITMAP
78
CC
86
FE
80
86
CC
78
ENDCHAR
STARTCHAR 0066
ENCODING 102
SWIDTH 327 0
DWIDTH 5 0
BBX 5 12 0 0
BITMAP
18
30
20
20
F8
20
20
20
20
20
20
20
ENDCHAR
STARTCHAR 0067
ENCODING 103
SWIDTH 589 0
DWIDTH 9 0
BBX 7 11 1 -3
BITMAP
7E
CE
86
86
86
C6
7E
06
86
CC
78
ENDCHAR
STARTCHAR 0068
ENCODING 104
SWIDTH 589 0
DWIDTH 9 0
BBX 7 11 1 0
BITMAP
C0
C0
C0
F8
EC
C4
C6
C6
C6
C6
C6
ENDCHAR
STARTCHAR 0069
ENCODING 105
SWIDTH 261 0
DWIDTH 4 0
BBX 2 12 1 0
BITMAP
C0
C0
00
00
C0
C0
C0
C0
C0
C0
C0
C0
ENDCHAR
STARTCHAR 006A
ENCODING 106
SWIDTH 261 0
DWIDTH 4 0
BBX 3 15 0 -3
BITMAP
60
60
00
00
60
60
60
60
60
60
60
60
60
60
C0
ENDCHAR
STARTCHAR 006B
ENCODING 107
SWIDTH 523 0
DWIDTH 8 0
BBX 7 11 1 0
BITMAP
C0
C0
C0
CC
D8
D0
F0
F0
D8
CC
C6
ENDCHAR
STARTCHAR 006C
ENCODING 108
SWIDTH 261 0
DWIDTH 4 0
BBX 2 11 1 0
BITMAP
C0
C0
C0
C0
C0
C0
C0
C0
C0
C0
C0
ENDCHAR
STARTCHAR 006D
ENCODING 109
SWIDTH 850 0
DWIDTH 13 0
BBX 11 8 1 0
BITMAP
F9C0
CE60
C420
C420
C420
C420
C420
C420
ENDCHAR
STARTCHAR 006E
ENCODING 110
SWIDTH 589 0
DWIDTH 9 0
BBX 7 8 1 0
BITMAP
F8
EC
C4
C6
C6
C6
C6
C6
ENDCHAR
STARTCHAR 006F
ENCODING 111
SWIDTH 589 0
DWIDTH 9 0
BBX 7 8 1 0
BITMAP
78
CC
86
82
82
86
CC
78
ENDCHAR
STARTCHAR 0070
ENCODING 112
SWIDTH 589 0
DWIDTH 9 0
BBX 7 11 1 -3
BITMAP
FC
E6
C2
C2
C2
C2
E6
FC
C0
C0
C0
ENDCHAR
STARTCHAR 0071
ENCODING 113
SWIDTH 589 0
DWIDTH 9 0
BBX 7 11 1 -3
BITMAP
7E
CE
86
86
86
86
CE
7E
06
06
06
ENDCHAR
STARTCHAR 0072
ENCODING 114
SWIDTH 392 0
DWIDTH 6 0
BBX 4 8 1 0
BITMAP
F0
F0
C0
C0
C0
C0
C0
C0
ENDCHAR
STARTCHAR 0073
ENCODING 115
SWIDTH 458 0
DWIDTH 7 0
BBX 5 8 1 0
BITMAP
70
D8
80
E0
38
88
98
70
ENDCHAR
STARTCHAR 0074
ENCODING 116
SWIDTH 327 0
DWIDTH 5 0
BBX 5 10 0 0
BITMAP
20
20
F8
20
20
20
20
20
20
38
ENDCHAR
STARTCHAR 0075
ENCODING 117
SWIDTH 589 0
DWIDTH 9 0
BBX 6 8 1 0
BITMAP
C4
C4
C4
C4
C4
C4
CC
7C
ENDCHAR
STARTCHAR 0076
ENCODING 118
SWIDTH 523 0
DWIDTH 8 0
BBX 7 8 0 0
BITMAP
C2
46
66
64
2C
38
18
18
ENDCHAR
STARTCHAR 0077
ENCODING 119
SWIDTH 785 0
DWIDTH 12 0
BBX 12 8 0 0
BITMAP
C630
4620
4720
6D60
2960
29C0
38C0
30C0
ENDCHAR
STARTCHAR 0078
ENCODING 120
SWIDTH 523 0
DWIDTH 8 0
BBX 7 8 0 0
BITMAP
46
64
3C
18
38
2C
64
C6
ENDCHAR
STARTCHAR 0079
ENCODING 121
SWIDTH 523 0
DWIDTH 8 0
BBX 8 11 0 -3
BITMAP
C3
42
66
24
3C
18
18
18
10
30
20
ENDCHAR
STARTCHAR 007A
ENCODING 122
SWIDTH 458 0
DWIDTH 7 0
BBX 6 8 1 0
BITMAP
F8
08
18
30
60
40
C0
FC
ENDCHAR
STARTCHAR 007B
ENCODING 123
SWIDTH 327 0
DWIDTH 5 0
BBX 4 14 1 -2
BITMAP
30
20
60
60
60
60
40
C0
60
60
60
60
20
30
ENDCHAR
STARTCHAR 007C
ENCODING 124
SWIDTH 261 0
DWIDTH 4 0
BBX 2 14 1 -2
BITMAP
C0
C0
C0
C0
C0
C0
C0
C0
C0
C0
C0
C0
C0
C0
ENDCHAR
STARTCHAR 007D
ENCODING 125
SWIDTH 327 0
DWIDTH 5 0
BBX 5 14 0 -2
BITMAP
C0
60
20
20
20
20
30
18
20
20
20
20
20
C0
ENDCHAR
STARTCHAR 007E
ENCODING 126
SWIDTH 589 0
DWIDTH 9 0
BBX 7 2 1 3
BITMAP
F2
9C
ENDCHAR
STARTCHAR 00A0
ENCODING 160
SWIDTH 261 0
DWIDTH 4 0
BBX 0 0 0 0
BITMAP
ENDCHAR
STARTCHAR 00A1
ENCODING 161
SWIDTH 261 0
DWIDTH 4 0
BBX 2 11 1 -3
BITMAP
C0
C0
00
40
40
C0
C0
C0
C0
C0
C0
ENDCHAR
STARTCHAR 00A2
ENCODING 162
SWIDTH 523 0
DWIDTH 8 0
BBX 6 10 1 0
BITMAP
10
38
7C
D4
90
90
D4
7C
30
10
ENDCHAR
STARTCHAR 00A3
ENCODING 163
SWIDTH 589 0
DWIDTH 9 0
BBX 8 10 1 0
BITMAP
3C
66
46
40
60
FC
20
63
C2
FE
ENDCHAR
STARTCHAR 00A4
ENCODING 164
SWIDTH 589 0
DWIDTH 9 0
BBX 7 8 1 0
BITMAP
82
FE
44
C6
C6
44
FE
82
ENDCHAR
STARTCHAR 00A5
ENCODING 165
SWIDTH 589 0
DWIDTH 9 0
BBX 7 10 1 0
BITMAP
82
C6
6C
28
FE
10
10
FE
10
10
ENDCHAR
STARTCHAR 00A6
ENCODING 166
SWIDTH 261 0
DWIDTH 4 0
BBX 2 14 1 -2
BITMAP
C0
C0
C0
C0
C0
C0
00
00
C0
C0
C0
C0
C0
C0
ENDCHAR
STARTCHAR 00A7
ENCODING 167
SWIDTH 589 0
DWIDTH 9 0
BBX 6 14 1 -3
BITMAP
38
4C
C4
C0
70
58
CC
C4
74
18
0C
C4
44
78
ENDCHAR
STARTCHAR 00A8
ENCODING 168
SWIDTH 392 0
DWIDTH 6 0
BBX 4 1 1 9
BITMAP
B0
ENDCHAR
STARTCHAR 00A9
ENCODING 169
SWIDTH 850 0
DWIDTH 13 0
BBX 11 11 1 0
BITMAP
1F00
6180
4EC0
9340
B020
A020
B020
9340
4EC0
6180
1F00
ENDCHAR
STARTCHAR 00AA
ENCODING 170
SWIDTH 458 0
DWIDTH 7 0
BBX 4 6 1 4
BITMAP
70
90
30
D0
90
70
ENDCHAR
STARTCHAR 00AB
ENCODING 171
SWIDTH 458 0
DWIDTH 7 0
BBX 6 6 1 2
BITMAP
6C
D8
90
90
D8
6C
ENDCHAR
STARTCHAR 00AC
ENCODING 172
SWIDTH 589 0
DWIDTH 9 0
BBX 7 4 1 2
BITMAP
FE
06
06
06
ENDCHAR
STARTCHAR 00AD
ENCODING 173
SWIDTH 392 0
DWIDTH 6 0
BBX 4 1 1 4
BITMAP
F0
ENDCHAR
STARTCHAR 00AE
ENCODING 174
SWIDTH 850 0
DWIDTH 13 0
BBX 11 11 1 0
BITMAP
1F00
6180
DE40
9B60
9B20
9E20
9E60
9A40
40C0
6180
1F00
ENDCHAR
STARTCHAR 00AF
ENCODING 175
SWIDTH 327 0
DWIDTH 5 0
BBX 4 1 1 9
BITMAP
F0
ENDCHAR
STARTCHAR 00B0
ENCODING 176
SWIDTH 392 0
DWIDTH 6 0
BBX 5 5 0 5
BITMAP
70
48
C8
48
70
ENDCHAR
STARTCHAR 00B1
ENCODING 177
SWIDTH 589 0
DWIDTH 9 0
BBX 7 7 1 1
BITMAP
10
10
FE
10
10
00
FE
ENDCHAR
STARTCHAR 00B2
ENCODING 178
SWIDTH 392 0
DWIDTH 6 0
BBX 4 6 1 5
BITMAP
60
90
10
60
C0
F0
ENDCHAR
STARTCHAR 00B3
ENCODING 179
SWIDTH 392 0
DWIDTH 6 0
BBX 4 6 1 5
BITMAP
F0
30
60
10
90
70
ENDCHAR
STARTCHAR 00B4
ENCODING 180
SWIDTH 261 0
DWIDTH 4 0
BBX 2 3 1 8
BITMAP
40
C0
80
ENDCHAR
STARTCHAR 00B5
ENCODING 181
SWIDTH 589 0
DWIDTH 9 0
BBX 7 11 1 -3
BITMAP
C4
C4
C4
C4
C4
C4
C4
FE
C0
C0
C0
ENDCHAR
STARTCHAR 00B6
ENCODING 182
SWIDTH 654 0
DWIDTH 10 0
BBX 8 14 1 -3
BITMAP
7F
F6
F6
F6
F6
76
16
16
16
16
16
16
16
16
ENDCHAR
STARTCHAR 00B7
ENCODING 183
SWIDTH 261 0
DWIDTH 4 0
BBX 2 2 1 3
BITMAP
C0
C0
ENDCHAR
STARTCHAR 00B8
ENCODING 184
SWIDTH 327 0
DWIDTH 5 0
BBX 3 4 1 -3
BITMAP
40
C0
20
E0
ENDCHAR
STARTCHAR 00B9
ENCODING 185
SWIDTH 261 0
DWIDTH 4 0
BBX 2 6 1 5
BITMAP
40
C0
40
40
40
40
ENDCHAR
STARTCHAR 00BA
ENCODING 186
SWIDTH 458 0
DWIDTH 7 0
BBX 5 5 1 5
BITMAP
70
C8
88
88
70
ENDCHAR
STARTCHAR 00BB
ENCODING 187
SWIDTH 458 0
DWIDTH 7 0
BBX 5 6 1 2
BITMAP
90
D8
48
48
D8
90
ENDCHAR
STARTCHAR 00BC
ENCODING 188
SWIDTH 785 0
DWIDTH 12 0
BBX 10 10 1 0
BITMAP
4100
C300
4200
4400
4C80
5980
1280
2680
67C0
4080
ENDCHAR
STARTCHAR 00BD
ENCODING 189
SWIDTH 785 0
DWIDTH 12 0
BBX 10 10 1 0
BITMAP
4100
C300
4200
4400
4DC0
5A40
1040
2180
6300
43C0
ENDCHAR
STARTCHAR 00BE
ENCODING 190
SWIDTH 850 0
DWIDTH 13 0
BBX 11 10 1 0
BITMAP
F0C0
3080
6100
1300
9640
74C0
0940
1B40
13E0
2040
ENDCHAR
STARTCHAR 00BF
ENCODING 191
SWIDTH 523 0
DWIDTH 8 0
BBX 7 11 0 -3
BITMAP
18
18
00
18
18
30
60
C2
C6
46
7C
ENDCHAR
STARTCHAR 00C0
ENCODING 192
SWIDTH 720 0
DWIDTH 11 0
BBX 10 14 0 0
BITMAP
1800
0C00
0000
0C00
0E00
1A00
1B00
1300
3100
2180
3F80
60C0
40C0
C040
ENDCHAR
STARTCHAR 00C1
ENCODING 193
SWIDTH 720 0
DWIDTH 11 0
BBX 10 14 0 0
BITMAP
0300
0600
0000
0C00
0E00
1A00
1B00
1300
3100
2180
3F80
60C0
40C0
C040
ENDCHAR
STARTCHAR 00C2
ENCODING 194
SWIDTH 720 0
DWIDTH 11 0
BBX 10 14 0 0
BITMAP
0E00
1B00
0000
0C00
0E00
1A00
1B00
1300
3100
2180
3F80
60C0
40C0
C040
ENDCHAR
STARTCHAR 00C3
ENCODING 195
SWIDTH 720 0
DWIDTH 11 0
BBX 10 14 0 0
BITMAP
1900
1600
0000
0C00
0E00
1A00
1B00
1300
3100
2180
3F80
60C0
40C0
C040
ENDCHAR
STARTCHAR 00C4
ENCODING 196
SWIDTH 720 0
DWIDTH 11 0
BBX 10 14 0 0
BITMAP
3100
3100
0000
0C00
0E00
1A00
1B00
1300
3100
2180
3F80
60C0
40C0
C040
ENDCHAR
STARTCHAR 00C5
ENCODING 197
SWIDTH 720 0
DWIDTH 11 0
BBX 10 14 0 0
BITMAP
0E00
1A00
1A00
0E00
0E00
1A00
1B00
1300
3100
2180
3F80
60C0
40C0
C040
ENDCHAR
STARTCHAR 00C6
ENCODING 198
SWIDTH 1047 0
DWIDTH 16 0
BBX 15 11 0 0
BITMAP
01FE
03C0
02C0
06C0
0CC0
08FC
18C0
3FC0
30C0
60C0
C0FE
ENDCHAR
STARTCHAR 00C7
ENCODING 199
SWIDTH 720 0
DWIDTH 11 0
BBX 10 14 1 -3
BITMAP
1E00
7380
C080
C080
8000
8000
8000
C0C0
C080
7380
1E00
0800
0600
0E00
ENDCHAR
STARTCHAR 00C8
ENCODING 200
SWIDTH 589 0
DWIDTH 9 0
BBX 7 14 1 0
BITMAP
30
10
00
FE
C0
C0
C0
C0
FC
C0
C0
C0
C0
FE
ENDCHAR
STARTCHAR 00C9
ENCODING 201
SWIDTH 589 0
DWIDTH 9 0
BBX 7 14 1 0
BITMAP
0C
18
00
FE
C0
C0
C0
C0
FC
C0
C0
C0
C0
FE
ENDCHAR
STARTCHAR 00CA
ENCODING 202
SWIDTH 589 0
DWIDTH 9 0
BBX 7 14 1 0
BITMAP
38
6C
00
FE
C0
C0
C0
C0
FC
C0
C0
C0
C0
FE
ENDCHAR
STARTCHAR 00CB
ENCODING 203
SWIDTH 589 0
DWIDTH 9 0
BBX 7 14 1 0
BITMAP
64
64
00
FE
C0
C0
C0
C0
FC
C0
C0
C0
C0
FE
ENDCHAR
STARTCHAR 00CC
ENCODING 204
SWIDTH 261 0
DWIDTH 4 0
BBX 3 14 0 0
BITMAP
C0
40
00
60
60
60
60
60
60
60
60
60
60
60
ENDCHAR
STARTCHAR 00CD
ENCODING 205
SWIDTH 261 0
DWIDTH 4 0
BBX 3 14 1 0
BITMAP
20
40
00
C0
C0
C0
C0
C0
C0
C0
C0
C0
C0
C0
ENDCHAR
STARTCHAR 00CE
ENCODING 206
SWIDTH 261 0
DWIDTH 4 0
BBX 4 14 0 0
BITMAP
70
D0
00
60
60
60
60
60
60
60
60
60
60
60
ENDCHAR
STARTCHAR 00CF
ENCODING 207
SWIDTH 261 0
DWIDTH 4 0
BBX 4 14 0 0
BITMAP
10
D0
00
60
60
60
60
60
60
60
60
60
60
60
ENDCHAR
STARTCHAR 00D0
ENCODING 208
SWIDTH 720 0
DWIDTH 11 0
BBX 10 11 0 0
BITMAP
7F00
6380
60C0
60C0
6040
F840
6040
60C0
60C0
6380
7F00
ENDCHAR
STARTCHAR 00D1
ENCODING 209
SWIDTH 785 0
DWIDTH 12 0
BBX 9 14 1 0
BITMAP
1A00
3600
0000
E080
E080
F080
D880
D880
CC80
C680
C680
C380
C180
C180
ENDCHAR
STARTCHAR 00D2
ENCODING 210
SWIDTH 785 0
DWIDTH 12 0
BBX 11 13 1 0
BITMAP
1800
0000
1E00
7380
C0C0
C040
8040
8060
8040
C040
C0C0
7380
1E00
ENDCHAR
STARTCHAR 00D3
ENCODING 211
SWIDTH 785 0
DWIDTH 12 0
BBX 11 13 1 0
BITMAP
0600
0000
1E00
7380
C0C0
C040
8040
8060
8040
C040
C0C0
7380
1E00
ENDCHAR
STARTCHAR 00D4
ENCODING 212
SWIDTH 785 0
DWIDTH 12 0
BBX 11 13 1 0
BITMAP
1E00
0000
1E00
7380
C0C0
C040
8040
8060
8040
C040
C0C0
7380
1E00
ENDCHAR
STARTCHAR 00D5
ENCODING 213
SWIDTH 785 0
DWIDTH 12 0
BBX 11 13 1 0
BITMAP
1900
1600
1E00
7380
C0C0
C040
8040
8060
8040
C040
C0C0
7380
1E00
ENDCHAR
STARTCHAR 00D6
ENCODING 214
SWIDTH 785 0
DWIDTH 12 0
BBX 11 13 1 0
BITMAP
3100
0000
1E00
7380
C0C0
C040
8040
8060
8040
C040
C0C0
7380
1E00
ENDCHAR
STARTCHAR 00D7
ENCODING 215
SWIDTH 523 0
DWIDTH 8 0
BBX 6 7 1 1
BITMAP
84
CC
78
30
78
CC
84
ENDCHAR
STARTCHAR 00D8
ENCODING 216
SWIDTH 785 0
DWIDTH 12 0
BBX 11 13 1 -1
BITMAP
0040
1EC0
7380
C1C0
C340
8640
8C60
8840
D040
70C0
7380
DE00
8000
ENDCHAR
STARTCHAR 00D9
ENCODING 217
SWIDTH 654 0
DWIDTH 10 0
BBX 8 14 1 0
BITMAP
30
18
00
C3
C3
C3
C3
C3
C3
C3
C3
C3
66
3C
ENDCHAR
STARTCHAR 00DA
ENCODING 218
SWIDTH 654 0
DWIDTH 10 0
BBX 8 14 1 0
BITMAP
0C
18
00
C3
C3
C3
C3
C3
C3
C3
C3
C3
66
3C
ENDCHAR
STARTCHAR 00DB
ENCODING 219
SWIDTH 654 0
DWIDTH 10 0
BBX 8 14 1 0
BITMAP
18
24
00
C3
C3
C3
C3
C3
C3
C3
C3
C3
66
3C
ENDCHAR
STARTCHAR 00DC
ENCODING 220
SWIDTH 654 0
DWIDTH 10 0
BBX 8 14 1 0
BITMAP
26
26
00
C3
C3
C3
C3
C3
C3
C3
C3
C3
66
3C
ENDCHAR
STARTCHAR 00DD
ENCODING 221
SWIDTH 589 0
DWIDTH 9 0
BBX 9 14 0 0
BITMAP
0600
0C00
0000
C180
6100
2300
3200
1E00
1C00
0800
0800
0800
0800
0800
ENDCHAR
STARTCHAR 00DE
ENCODING 222
SWIDTH 589 0
DWIDTH 9 0
BBX 8 11 1 0
BITMAP
C0
C0
FC
C6
C3
C3
C2
FE
C0
C0
C0
ENDCHAR
STARTCHAR 00DF
ENCODING 223
SWIDTH 589 0
DWIDTH 9 0
BBX 7 11 1 0
BITMAP
38
64
C6
C6
CC
D8
D8
CE
C2
F2
DC
ENDCHAR
STARTCHAR 00E0
ENCODING 224
SWIDTH 523 0
DWIDTH 8 0
BBX 6 11 1 0
BITMAP
60
20
00
78
CC
84
3C
E4
8C
CC
74
ENDCHAR
STARTCHAR 00E1
ENCODING 225
SWIDTH 523 0
DWIDTH 8 0
BBX 6 11 1 0
BITMAP
18
10
00
78
CC
84
3C
E4
8C
CC
74
ENDCHAR
STARTCHAR 00E2
ENCODING 226
SWIDTH 523 0
DWIDTH 8 0
BBX 6 11 1 0
BITMAP
30
48
00
78
CC
84
3C
E4
8C
CC
74
ENDCHAR
STARTCHAR 00E3
ENCODING 227
SWIDTH 523 0
DWIDTH 8 0
BBX 6 11 1 0
BITMAP
68
58
00
78
CC
84
3C
E4
8C
CC
74
ENDCHAR
STARTCHAR 00E4
ENCODING 228
SWIDTH 523 0
DWIDTH 8 0
BBX 6 11 1 0
BITMAP
48
48
00
78
CC
84
3C
E4
8C
CC
74
ENDCHAR
STARTCHAR 00E5
ENCODING 229
SWIDTH 523 0
DWIDTH 8 0
BBX 6 12 1 0
BITMAP
30
48
30
00
78
CC
84
3C
E4
8C
CC
74
ENDCHAR
STARTCHAR 00E6
ENCODING 230
SWIDTH 850 0
DWIDTH 13 0
BBX 12 8 1 0
BITMAP
7BC0
CE60
0430
7FF0
C400
8C30
CE60
73C0
ENDCHAR
STARTCHAR 00E7
ENCODING 231
SWIDTH 523 0
DWIDTH 8 0
BBX 7 11 1 -3
BITMAP
78
CC
84
80
80
C6
7C
38
38
08
38
ENDCHAR
STARTCHAR 00E8
ENCODING 232
SWIDTH 523 0
DWIDTH 8 0
BBX 7 11 1 0
BITMAP
60
30
00
78
CC
86
FE
80
86
CC
78
ENDCHAR
STARTCHAR 00E9
ENCODING 233
SWIDTH 523 0
DWIDTH 8 0
BBX 7 11 1 0
BITMAP
18
10
00
78
CC
86
FE
80
86
CC
78
ENDCHAR
STARTCHAR 00EA
ENCODING 234
SWIDTH 523 0
DWIDTH 8 0
BBX 7 11 1 0
BITMAP
30
68
00
78
CC
86
FE
80
86
CC
78
ENDCHAR
STARTCHAR 00EB
ENCODING 235
SWIDTH 523 0
DWIDTH 8 0
BBX 7 11 1 0
BITMAP
68
68
00
78
CC
86
FE
80
86
CC
78
ENDCHAR
STARTCHAR 00EC
ENCODING 236
SWIDTH 261 0
DWIDTH 4 0
BBX 3 11 0 0
BITMAP
C0
40
00
60
60
60
60
60
60
60
60
ENDCHAR
STARTCHAR 00ED
ENCODING 237
SWIDTH 261 0
DWIDTH 4 0
BBX 3 11 1 0
BITMAP
60
40
00
C0
C0
C0
C0
C0
C0
C0
C0
ENDCHAR
STARTCHAR 00EE
ENCODING 238
SWIDTH 261 0
DWIDTH 4 0
BBX 4 11 0 0
BITMAP
60
90
00
60
60
60
60
60
60
60
60
ENDCHAR
STARTCHAR 00EF
ENCODING 239
SWIDTH 261 0
DWIDTH 4 0
BBX 4 11 0 0
BITMAP
F0
80
00
60
60
60
60
60
60
60
60
ENDCHAR
STARTCHAR 00F0
ENCODING 240
SWIDTH 589 0
DWIDTH 9 0
BBX 7 11 1 0
BITMAP
64
3C
7C
04
7E
C6
86
82
86
CC
78
ENDCHAR
STARTCHAR 00F1
ENCODING 241
SWIDTH 589 0
DWIDTH 9 0
BBX 7 11 1 0
BITMAP
74
5C
00
F8
EC
C4
C6
C6
C6
C6
C6
ENDCHAR
STARTCHAR 00F2
ENCODING 242
SWIDTH 589 0
DWIDTH 9 0
BBX 7 11 1 0
BITMAP
60
30
00
78
CC
86
82
82
86
CC
78
ENDCHAR
STARTCHAR 00F3
ENCODING 243
SWIDTH 589 0
DWIDTH 9 0
BBX 7 11 1 0
BITMAP
18
10
00
78
CC
86
82
82
86
CC
78
ENDCHAR
STARTCHAR 00F4
ENCODING 244
SWIDTH 589 0
DWIDTH 9 0
BBX 7 11 1 0
BITMAP
38
68
00
78
CC
86
82
82
86
CC
78
ENDCHAR
STARTCHAR 00F5
ENCODING 245
SWIDTH 589 0
DWIDTH 9 0
BBX 7 11 1 0
BITMAP
74
58
00
78
CC
86
82
82
86
CC
78
ENDCHAR
STARTCHAR 00F6
ENCODING 246
SWIDTH 589 0
DWIDTH 9 0
BBX 7 11 1 0
BITMAP
6C
6C
00
78
CC
86
82
82
86
CC
78
ENDCHAR
STARTCHAR 00F7
ENCODING 247
SWIDTH 589 0
DWIDTH 9 0
BBX 7 7 1 1
BITMAP
30
30
00
FE
00
10
30
ENDCHAR
STARTCHAR 00F8
ENCODING 248
SWIDTH 589 0
DWIDTH 9 0
BBX 7 10 1 -1
BITMAP
04
7E
CC
8E
92
B2
A6
CC
F8
80
ENDCHAR
STARTCHAR 00F9
ENCODING 249
SWIDTH 589 0
DWIDTH 9 0
BBX 6 11 1 0
BITMAP
60
30
00
C4
C4
C4
C4
C4
C4
CC
7C
ENDCHAR
STARTCHAR 00FA
ENCODING 250
SWIDTH 589 0
DWIDTH 9 0
BBX 6 11 1 0
BITMAP
18
10
00
C4
C4
C4
C4
C4
C4
CC
7C
ENDCHAR
STARTCHAR 00FB
ENCODING 251
SWIDTH 589 0
DWIDTH 9 0
BBX 6 11 1 0
BITMAP
30
68
00
C4
C4
C4
C4
C4
C4
CC
7C
ENDCHAR
STARTCHAR 00FC
ENCODING 252
SWIDTH 589 0
DWIDTH 9 0
BBX 6 11 1 0
BITMAP
68
68
00
C4
C4
C4
C4
C4
C4
CC
7C
ENDCHAR
STARTCHAR 00FD
ENCODING 253
SWIDTH 523 0
DWIDTH 8 0
BBX 8 14 0 -3
BITMAP
0C
18
00
C3
42
66
24
3C
18
18
18
10
30
20
ENDCHAR
STARTCHAR 00FE
ENCODING 254
SWIDTH 589 0
DWIDTH 9 0
BBX 7 14 1 -3
BITMAP
C0
C0
C0
FC
E6
C2
C2
C2
C2
E6
FC
C0
C0
C0
ENDCHAR
STARTCHAR 00FF
ENCODING 255
SWIDTH 523 0
DWIDTH 8 0
BBX 8 14 0 -3
BITMAP
24
24
00
C3
42
66
24
3C
18
18
18
10
30
20
ENDCHAR
STARTCHAR 0131
ENCODING 305
SWIDTH 261 0
DWIDTH 4 0
BBX 2 8 1 0
BITMAP
C0
C0
C0
C0
C0
C0
C0
C0
ENDCHAR
STARTCHAR 0141
ENCODING 321
SWIDTH 589 0
DWIDTH 9 0
BBX 8 11 0 0
BITMAP
20
20
20
20
38
70
E0
20
20
20
3F
ENDCHAR
STARTCHAR 0142
ENCODING 322
SWIDTH 261 0
DWIDTH 4 0
BBX 4 11 0 0
BITMAP
60
60
60
60
60
70
E0
60
60
60
60
ENDCHAR
STARTCHAR 0152
ENCODING 338
SWIDTH 1178 0
DWIDTH 18 0
BBX 16 11 1 0
BITMAP
1E7F
61E0
C0E0
C060
8060
807E
8060
C060
40E0
61E0
1E7F
ENDCHAR
STARTCHAR 0153
ENCODING 339
SWIDTH 916 0
DWIDTH 14 0
BBX 13 8 1 0
BITMAP
79E0
CF30
8618
83F8
8200
8618
CF30
79E0
ENDCHAR
STARTCHAR 0160
ENCODING 352
SWIDTH 589 0
DWIDTH 9 0
BBX 7 13 1 0
BITMAP
38
00
3C
66
C2
C0
E0
7C
06
02
82
E6
7C
ENDCHAR
STARTCHAR 0161
ENCODING 353
SWIDTH 458 0
DWIDTH 7 0
BBX 5 11 1 0
BITMAP
D0
70
00
70
D8
80
E0
38
88
98
70
ENDCHAR
STARTCHAR 0178
ENCODING 376
SWIDTH 589 0
DWIDTH 9 0
BBX 9 14 0 0
BITMAP
3200
3200
0000
C180
6100
2300
3200
1E00
1C00
0800
0800
0800
0800
0800
ENDCHAR
STARTCHAR 017D
ENCODING 381
SWIDTH 654 0
DWIDTH 10 0
BBX 8 14 1 0
BITMAP
24
18
00
FF
03
06
0C
0C
18
30
60
C0
C0
FF
ENDCHAR
STARTCHAR 017E
ENCODING 382
SWIDTH 458 0
DWIDTH 7 0
BBX 6 11 1 0
BITMAP
58
70
00
F8
08
18
30
60
40
C0
FC
ENDCHAR
STARTCHAR 0192
ENCODING 402
SWIDTH 458 0
DWIDTH 7 0
BBX 7 14 0 -2
BITMAP
06
0C
08
18
7E
10
10
10
30
30
30
20
60
E0
ENDCHAR
STARTCHAR 02C6
ENCODING 710
SWIDTH 392 0
DWIDTH 6 0
BBX 4 2 1 8
BITMAP
60
90
ENDCHAR
STARTCHAR 02C7
ENCODING 711
SWIDTH 392 0
DWIDTH 6 0
BBX 4 2 1 8
BITMAP
90
60
ENDCHAR
STARTCHAR 02C9
ENCODING 713
SWIDTH 327 0
DWIDTH 5 0
BBX 4 1 1 9
BITMAP
F0
ENDCHAR
STARTCHAR 02D8
ENCODING 728
SWIDTH 392 0
DWIDTH 6 0
BBX 4 2 1 8
BITMAP
90
E0
ENDCHAR
STARTCHAR 02D9
ENCODING 729
SWIDTH 196 0
DWIDTH 3 0
BBX 2 2 0 8
BITMAP
40
C0
ENDCHAR
STARTCHAR 02DA
ENCODING 730
SWIDTH 261 0
DWIDTH 4 0
BBX 3 4 1 8
BITMAP
C0
A0
A0
C0
ENDCHAR
STARTCHAR 02DB
ENCODING 731
SWIDTH 261 0
DWIDTH 4 0
BBX 2 3 1 -3
BITMAP
80
80
C0
ENDCHAR
STARTCHAR 02DC
ENCODING 732
SWIDTH 392 0
DWIDTH 6 0
BBX 5 2 0 8
BITMAP
68
D8
ENDCHAR
STARTCHAR 02DD
ENCODING 733
SWIDTH 392 0
DWIDTH 6 0
BBX 4 3 1 8
BITMAP
F0
A0
A0
ENDCHAR
STARTCHAR 0394
ENCODING 916
SWIDTH 654 0
DWIDTH 10 0
BBX 10 11 0 0
BITMAP
0C00
0C00
1E00
1200
1300
3300
2100
6180
6080
40C0
FFC0
ENDCHAR
STARTCHAR 03A9
ENCODING 937
SWIDTH 785 0
DWIDTH 12 0
BBX 10 11 1 0
BITMAP
1E00
7380
C0C0
C040
8040
8040
8040
C0C0
6180
3300
F3C0
ENDCHAR
STARTCHAR 03BC
ENCODING 956
SWIDTH 589 0
DWIDTH 9 0
BBX 7 11 1 -3
BITMAP
C4
C4
C4
C4
C4
C4
C4
FE
C0
C0
C0
ENDCHAR
STARTCHAR 03C0
ENCODING 960
SWIDTH 589 0
DWIDTH 9 0
BBX 8 8 1 0
BITMAP
FF
44
44
44
44
44
44
47
ENDCHAR
STARTCHAR 2007
ENCODING 8199
SWIDTH 589 0
DWIDTH 9 0
BBX 0 0 0 0
BITMAP
ENDCHAR
STARTCHAR 2008
ENCODING 8200
SWIDTH 261 0
DWIDTH 4 0
BBX 0 0 0 0
BITMAP
ENDCHAR
STARTCHAR 200B
ENCODING 8203
SWIDTH 0 0
DWIDTH 0 0
BBX 0 0 0 0
BITMAP
ENDCHAR
STARTCHAR 2013
ENCODING 8211
SWIDTH 654 0
DWIDTH 10 0
BBX 8 1 1 4
BITMAP
FF
ENDCHAR
STARTCHAR 2014
ENCODING 8212
SWIDTH 1112 0
DWIDTH 17 0
BBX 15 1 1 4
BITMAP
FFFE
ENDCHAR
STARTCHAR 2018
ENCODING 8216
SWIDTH 196 0
DWIDTH 3 0
BBX 2 4 1 7
BITMAP
40
80
C0
C0
ENDCHAR
STARTCHAR 2019
ENCODING 8217
SWIDTH 196 0
DWIDTH 3 0
BBX 2 4 1 7
BITMAP
C0
C0
40
80
ENDCHAR
STARTCHAR 201A
ENCODING 8218
SWIDTH 196 0
DWIDTH 3 0
BBX 2 4 1 -2
BITMAP
C0
C0
40
80
ENDCHAR
STARTCHAR 201C
ENCODING 8220
SWIDTH 392 0
DWIDTH 6 0
BBX 4 4 1 7
BITMAP
50
A0
F0
F0
ENDCHAR
STARTCHAR 201D
ENCODING 8221
SWIDTH 392 0
DWIDTH 6 0
BBX 4 4 1 7
BITMAP
F0
F0
50
A0
ENDCHAR
STARTCHAR 201E
ENCODING 8222
SWIDTH 392 0
DWIDTH 6 0
BBX 4 4 1 -2
BITMAP
B0
F0
50
A0
ENDCHAR
STARTCHAR 2020
ENCODING 8224
SWIDTH 392 0
DWIDTH 6 0
BBX 6 8 0 3
BITMAP
30
30
FC
30
30
30
30
30
ENDCHAR
STARTCHAR 2021
ENCODING 8225
SWIDTH 458 0
DWIDTH 7 0
BBX 5 11 1 0
BITMAP
20
20
F8
20
20
20
20
20
F8
20
20
ENDCHAR
STARTCHAR 2022
ENCODING 8226
SWIDTH 523 0
DWIDTH 8 0
BBX 6 7 1 1
BITMAP
38
7C
FC
FC
FC
7C
38
ENDCHAR
STARTCHAR 2026
ENCODING 8230
SWIDTH 916 0
DWIDTH 14 0
BBX 12 2 1 0
BITMAP
C630
C630
ENDCHAR
STARTCHAR 2030
ENCODING 8240
SWIDTH 1047 0
DWIDTH 16 0
BBX 14 10 1 0
BITMAP
7080
D900
9B00
DA00
7400
0C00
09FC
1264
3264
61D8
ENDCHAR
STARTCHAR 2039
ENCODING 8249
SWIDTH 261 0
DWIDTH 4 0
BBX 3 6 1 2
BITMAP
60
C0
80
80
C0
60
ENDCHAR
STARTCHAR 203A
ENCODING 8250
SWIDTH 261 0
DWIDTH 4 0
BBX 2 6 1 2
BITMAP
80
C0
40
40
C0
80
ENDCHAR
STARTCHAR 2042
ENCODING 8258
SWIDTH 850 0
DWIDTH 13 0
BBX 11 11 1 0
BITMAP
0400
1500
1E00
0E00
0A00
0000
2080
22A0
F1E0
61C0
9140
ENDCHAR
STARTCHAR 2044
ENCODING 8260
SWIDTH 589 0
DWIDTH 9 0
BBX 8 10 0 0
BITMAP
01
02
06
04
08
18
30
20
40
C0
ENDCHAR
STARTCHAR 2051
ENCODING 8273
SWIDTH 392 0
DWIDTH 6 0
BBX 5 11 1 0
BITMAP
20
A8
F0
70
90
00
20
A8
F0
70
90
ENDCHAR
STARTCHAR 2070
ENCODING 8304
SWIDTH 458 0
DWIDTH 7 0
BBX 5 6 1 5
BITMAP
70
90
98
98
90
70
ENDCHAR
STARTCHAR 2074
ENCODING 8308
SWIDTH 458 0
DWIDTH 7 0
BBX 5 5 1 6
BITMAP
30
50
90
F8
10
ENDCHAR
STARTCHAR 2075
ENCODING 8309
SWIDTH 392 0
DWIDTH 6 0
BBX 4 6 1 5
BITMAP
70
80
F0
10
90
70
ENDCHAR
STARTCHAR 2076
ENCODING 8310
SWIDTH 392 0
DWIDTH 6 0
BBX 4 6 1 5
BITMAP
70
C0
F0
90
90
70
ENDCHAR
STARTCHAR 2077
ENCODING 8311
SWIDTH 392 0
DWIDTH 6 0
BBX 4 6 1 5
BITMAP
F0
30
20
60
40
40
ENDCHAR
STARTCHAR 2078
ENCODING 8312
SWIDTH 392 0
DWIDTH 6 0
BBX 4 6 1 5
BITMAP
70
90
60
90
90
70
ENDCHAR
STARTCHAR 2079
ENCODING 8313
SWIDTH 392 0
DWIDTH 6 0
BBX 4 6 1 5
BITMAP
70
90
90
70
10
E0
ENDCHAR
STARTCHAR 2080
ENCODING 8320
SWIDTH 458 0
DWIDTH 7 0
BBX 5 6 1 -1
BITMAP
70
90
98
98
90
70
ENDCHAR
STARTCHAR 2081
ENCODING 8321
SWIDTH 327 0
DWIDTH 5 0
BBX 2 6 1 -1
BITMAP
40
C0
40
40
40
40
ENDCHAR
STARTCHAR 2082
ENCODING 8322
SWIDTH 392 0
DWIDTH 6 0
BBX 4 6 1 -1
BITMAP
60
90
10
60
C0
F0
ENDCHAR
STARTCHAR 2083
ENCODING 8323
SWIDTH 392 0
DWIDTH 6 0
BBX 4 5 1 -1
BITMAP
F0
20
30
90
70
ENDCHAR
STARTCHAR 2084
ENCODING 8324
SWIDTH 458 0
DWIDTH 7 0
BBX 5 5 1 -1
BITMAP
30
50
D0
F8
10
ENDCHAR
STARTCHAR 2085
ENCODING 8325
SWIDTH 392 0
DWIDTH 6 0
BBX 4 6 1 -1
BITMAP
70
80
F0
10
90
70
ENDCHAR
STARTCHAR 2086
ENCODING 8326
SWIDTH 392 0
DWIDTH 6 0
BBX 4 6 1 -1
BITMAP
70
C0
F0
90
90
70
ENDCHAR
STARTCHAR 2087
ENCODING 8327
SWIDTH 392 0
DWIDTH 6 0
BBX 4 5 1 -1
BITMAP
F0
30
20
40
40
ENDCHAR
STARTCHAR 2088
ENCODING 8328
SWIDTH 392 0
DWIDTH 6 0
BBX 4 6 1 -1
BITMAP
70
90
90
60
90
F0
ENDCHAR
STARTCHAR 2089
ENCODING 8329
SWIDTH 392 0
DWIDTH 6 0
BBX 4 6 1 -1
BITMAP
70
90
90
F0
10
E0
ENDCHAR
STARTCHAR 20AC
ENCODING 8364
SWIDTH 720 0
DWIDTH 11 0
BBX 9 10 1 0
BITMAP
0F00
3900
2000
FE00
6000
6000
FC00
2000
3980
0F00
ENDCHAR
STARTCHAR 2113
ENCODING 8467
SWIDTH 392 0
DWIDTH 6 0
BBX 5 10 1 0
BITMAP
70
58
58
50
70
60
C0
40
40
70
ENDCHAR
STARTCHAR 2122
ENCODING 8482
SWIDTH 850 0
DWIDTH 13 0
BBX 12 6 0 5
BITMAP
FB10
2330
2330
22F0
22D0
22D0
ENDCHAR
STARTCHAR 2126
ENCODING 8486
SWIDTH 785 0
DWIDTH 12 0
BBX 10 11 1 0
BITMAP
1E00
7380
C0C0
C040
8040
8040
8040
C0C0
6180
3300
F3C0
ENDCHAR
STARTCHAR 2160
ENCODING 8544
SWIDTH 523 0
DWIDTH 8 0
BBX 6 10 1 0
BITMAP
FC
30
30
30
30
30
30
30
30
FC
ENDCHAR
STARTCHAR 2161
ENCODING 8545
SWIDTH 785 0
DWIDTH 12 0
BBX 10 10 1 0
BITMAP
FFC0
2300
2300
2300
2300
2300
2300
2300
2300
FFC0
ENDCHAR
STARTCHAR 2162
ENCODING 8546
SWIDTH 1047 0
DWIDTH 16 0
BBX 14 10 1 0
BITMAP
FFFC
2330
2330
2330
2330
2330
2330
2330
2330
FFFC
ENDCHAR
STARTCHAR 2163
ENCODING 8547
SWIDTH 981 0
DWIDTH 15 0
BBX 14 10 1 0
BITMAP
FFFC
2430
2420
2620
2260
2240
2340
21C0
2180
FFFC
ENDCHAR
STARTCHAR 2164
ENCODING 8548
SWIDTH 785 0
DWIDTH 12 0
BBX 10 10 1 0
BITMAP
FFC0
2180
2100
3100
1300
1200
1A00
0E00
0C00
FFC0
ENDCHAR
STARTCHAR 2165
ENCODING 8549
SWIDTH 981 0
DWIDTH 15 0
BBX 14 10 1 0
BITMAP
FFFC
21B0
2130
3130
1330
1230
1A30
0E30
0C30
FFFC
ENDCHAR
STARTCHAR 2166
ENCODING 8550
SWIDTH 1309 0
DWIDTH 20 0
BBX 18 10 1 0
BITMAP
FFFFC0
21B300
213300
313300
133300
123300
1A3300
0E3300
0C3300
FFFFC0
ENDCHAR
STARTCHAR 2167
ENCODING 8551
SWIDTH 1570 0
DWIDTH 24 0
BBX 22 10 1 0
BITMAP
FFFFFC
21A330
212330
332330
132330
122330
1A2330
0E2330
0C2330
FFFFFC
ENDCHAR
STARTCHAR 2168
ENCODING 8552
SWIDTH 981 0
DWIDTH 15 0
BBX 13 10 1 0
BITMAP
FFF8
2420
2660
23C0
2180
2180
23C0
2240
2420
FFF8
ENDCHAR
STARTCHAR 2169
ENCODING 8553
SWIDTH 785 0
DWIDTH 12 0
BBX 10 10 1 0
BITMAP
FFC0
2300
3200
1E00
0C00
0C00
1E00
3200
2300
FFC0
ENDCHAR
STARTCHAR 216C
ENCODING 8556
SWIDTH 654 0
DWIDTH 10 0
BBX 8 10 1 0
BITMAP
F8
20
20
20
20
20
21
21
21
FF
ENDCHAR
STARTCHAR 216D
ENCODING 8557
SWIDTH 720 0
DWIDTH 11 0
BBX 9 10 1 0
BITMAP
1E80
6380
C180
C000
8000
8000
C080
C180
7380
1E80
ENDCHAR
STARTCHAR 216E
ENCODING 8558
SWIDTH 720 0
DWIDTH 11 0
BBX 9 10 1 0
BITMAP
FE00
2300
2180
2080
2080
2080
2080
2180
2300
FE00
ENDCHAR
STARTCHAR 216F
ENCODING 8559
SWIDTH 1047 0
DWIDTH 16 0
BBX 14 10 1 0
BITMAP
F03C
3030
3870
2850
2C50
24D0
2690
2790
2310
FB3C
ENDCHAR
STARTCHAR 2190
ENCODING 8592
SWIDTH 1047 0
DWIDTH 16 0
BBX 15 5 0 2
BITMAP
2000
6000
FFFE
6000
2000
ENDCHAR
STARTCHAR 2191
ENCODING 8593
SWIDTH 458 0
DWIDTH 7 0
BBX 6 14 1 -2
BITMAP
20
70
78
FC
20
20
20
20
20
20
20
20
20
20
ENDCHAR
STARTCHAR 2192
ENCODING 8594
SWIDTH 1047 0
DWIDTH 16 0
BBX 14 7 1 1
BITMAP
0020
0030
0038
FFFC
0038
0030
0020
ENDCHAR
STARTCHAR 2193
ENCODING 8595
SWIDTH 458 0
DWIDTH 7 0
BBX 6 14 0 -2
BITMAP
10
10
10
10
10
10
10
10
10
10
FC
78
38
10
ENDCHAR
STARTCHAR 2196
ENCODING 8598
SWIDTH 850 0
DWIDTH 13 0
BBX 10 11 1 0
BITMAP
F000
E000
E000
B000
1800
0C00
0600
0300
0180
00C0
0040
ENDCHAR
STARTCHAR 2197
ENCODING 8599
SWIDTH 785 0
DWIDTH 12 0
BBX 10 11 0 0
BITMAP
03C0
01C0
01C0
0340
0600
0C00
1800
3000
6000
C000
8000
ENDCHAR
STARTCHAR 2198
ENCODING 8600
SWIDTH 850 0
DWIDTH 13 0
BBX 11 11 1 0
BITMAP
8000
C000
6000
3000
1800
0C00
0600
0320
01E0
00E0
01E0
ENDCHAR
STARTCHAR 2199
ENCODING 8601
SWIDTH 785 0
DWIDTH 12 0
BBX 10 11 1 0
BITMAP
0040
00C0
0180
0300
0600
0C00
1800
B000
E000
E000
F000
ENDCHAR
STARTCHAR 21A9
ENCODING 8617
SWIDTH 850 0
DWIDTH 13 0
BBX 12 8 0 2
BITMAP
03E0
0030
0010
2010
6030
FFE0
6000
2000
ENDCHAR
STARTCHAR 21B0
ENCODING 8624
SWIDTH 785 0
DWIDTH 12 0
BBX 9 11 1 0
BITMAP
2000
6000
FF80
6080
2080
0080
0080
0080
0080
0080
0080
ENDCHAR
STARTCHAR 21B1
ENCODING 8625
SWIDTH 720 0
DWIDTH 11 0
BBX 10 11 1 0
BITMAP
0200
0180
FFC0
8180
8100
8000
8000
8000
8000
8000
8000
ENDCHAR
STARTCHAR 21B2
ENCODING 8626
SWIDTH 785 0
DWIDTH 12 0
BBX 10 11 0 0
BITMAP
0040
0040
0040
0040
0040
0040
2040
6040
FFC0
6000
2000
ENDCHAR
STARTCHAR 21B3
ENCODING 8627
SWIDTH 850 0
DWIDTH 13 0
BBX 11 11 1 0
BITMAP
C000
C000
C000
C000
C000
C000
C180
C1C0
FFE0
0180
0100
ENDCHAR
STARTCHAR 21B4
ENCODING 8628
SWIDTH 785 0
DWIDTH 12 0
BBX 10 11 1 0
BITMAP
FF80
0180
0180
0180
0180
0180
0180
0180
03C0
0180
0100
ENDCHAR
STARTCHAR 21C6
ENCODING 8646
SWIDTH 1112 0
DWIDTH 17 0
BBX 15 11 1 0
BITMAP
2000
6000
FFFE
6000
2000
0000
0008
000C
FFFE
000C
0010
ENDCHAR
STARTCHAR 2202
ENCODING 8706
SWIDTH 589 0
DWIDTH 9 0
BBX 8 11 1 0
BITMAP
F8
0C
06
02
7F
C7
83
82
82
EE
78
ENDCHAR
STARTCHAR 2206
ENCODING 8710
SWIDTH 654 0
DWIDTH 10 0
BBX 10 11 0 0
BITMAP
0C00
0C00
1E00
1200
1300
3300
2100
6180
6080
40C0
FFC0
ENDCHAR
STARTCHAR 220F
ENCODING 8719
SWIDTH 720 0
DWIDTH 11 0
BBX 8 11 1 0
BITMAP
FF
C1
C1
C1
C1
C1
C1
C1
C1
C1
C1
ENDCHAR
STARTCHAR 2211
ENCODING 8721
SWIDTH 589 0
DWIDTH 9 0
BBX 7 11 1 0
BITMAP
FE
C0
60
30
18
0C
18
30
60
C0
FE
ENDCHAR
STARTCHAR 2212
ENCODING 8722
SWIDTH 523 0
DWIDTH 8 0
BBX 6 1 1 4
BITMAP
FC
ENDCHAR
STARTCHAR 2215
ENCODING 8725
SWIDTH 392 0
DWIDTH 6 0
BBX 6 10 0 0
BITMAP
04
08
08
10
10
30
20
60
40
C0
ENDCHAR
STARTCHAR 2219
ENCODING 8729
SWIDTH 261 0
DWIDTH 4 0
BBX 2 2 1 3
BITMAP
C0
C0
ENDCHAR
STARTCHAR 221A
ENCODING 8730
SWIDTH 654 0
DWIDTH 10 0
BBX 10 13 1 0
BITMAP
03C0
0300
0200
0600
0600
8400
CC00
CC00
4800
7800
3800
3000
3000
ENDCHAR
STARTCHAR 221E
ENCODING 8734
SWIDTH 785 0
DWIDTH 12 0
BBX 11 5 1 2
BITMAP
7380
9E40
8C60
8E40
F3C0
ENDCHAR
STARTCHAR 222B
ENCODING 8747
SWIDTH 327 0
DWIDTH 5 0
BBX 5 14 0 -3
BITMAP
38
30
20
20
20
20
20
20
20
20
20
20
60
C0
ENDCHAR
STARTCHAR 2248
ENCODING 8776
SWIDTH 589 0
DWIDTH 9 0
BBX 7 5 1 2
BITMAP
F2
BE
00
F2
BE
ENDCHAR
STARTCHAR 2260
ENCODING 8800
SWIDTH 589 0
DWIDTH 9 0
BBX 7 7 1 1
BITMAP
06
04
FE
18
30
FE
40
ENDCHAR
STARTCHAR 2264
ENCODING 8804
SWIDTH 523 0
DWIDTH 8 0
BBX 6 7 1 1
BITMAP
04
3C
C0
F0
1C
00
FC
ENDCHAR
STARTCHAR 2265
ENCODING 8805
SWIDTH 523 0
DWIDTH 8 0
BBX 6 7 1 1
BITMAP
80
70
0C
1C
E0
00
FC
ENDCHAR
STARTCHAR 22C5
ENCODING 8901
SWIDTH 261 0
DWIDTH 4 0
BBX 2 2 1 3
BITMAP
C0
C0
ENDCHAR
STARTCHAR 24C5
ENCODING 9413
SWIDTH 850 0
DWIDTH 13 0
BBX 11 11 1 0
BITMAP
1F00
6180
DE40
9960
9920
9E20
9860
9840
40C0
2180
1F00
ENDCHAR
STARTCHAR 25A0
ENCODING 9632
SWIDTH 916 0
DWIDTH 14 0
BBX 10 11 2 0
BITMAP
FFC0
FFC0
FFC0
FFC0
FFC0
FFC0
FFC0
FFC0
FFC0
FFC0
FFC0
ENDCHAR
STARTCHAR 25A1
ENCODING 9633
SWIDTH 916 0
DWIDTH 14 0
BBX 10 11 2 0
BITMAP
FFC0
8040
8040
8040
8040
8040
8040
8040
8040
8040
FFC0
ENDCHAR
STARTCHAR 25B2
ENCODING 9650
SWIDTH 850 0
DWIDTH 13 0
BBX 12 11 0 0
BITMAP
0200
0200
0700
0F00
0F80
1FC0
1FC0
3FE0
7FE0
7FF0
FFF0
ENDCHAR
STARTCHAR 25B3
ENCODING 9651
SWIDTH 850 0
DWIDTH 13 0
BBX 12 11 0 0
BITMAP
0200
0200
0700
0D00
0880
18C0
1040
2060
6020
4030
FFF0
ENDCHAR
STARTCHAR 25CA
ENCODING 9674
SWIDTH 589 0
DWIDTH 9 0
BBX 7 11 1 0
BITMAP
30
38
68
4C
C4
86
C4
4C
68
38
30
ENDCHAR
STARTCHAR 25CB
ENCODING 9675
SWIDTH 850 0
DWIDTH 13 0
BBX 11 11 1 0
BITMAP
1F00
7180
40C0
8060
8020
8020
8020
8060
40C0
7180
1F00
ENDCHAR
STARTCHAR 25CF
ENCODING 9679
SWIDTH 850 0
DWIDTH 13 0
BBX 11 11 1 0
BITMAP
1F00
7F80
7FC0
FFE0
FFE0
FFE0
FFE0
FFE0
7FC0
7F80
1F00
ENDCHAR
STARTCHAR 262E
ENCODING 9774
SWIDTH 850 0
DWIDTH 13 0
BBX 11 11 1 0
BITMAP
1F00
6580
44C0
8440
8420
8E20
9F60
B5C0
44C0
6580
1F00
ENDCHAR
STARTCHAR 2713
ENCODING 10003
SWIDTH 981 0
DWIDTH 15 0
BBX 13 11 1 0
BITMAP
0008
0018
0030
0060
00C0
0180
8300
C600
6C00
3800
1000
ENDCHAR
STARTCHAR 2715
ENCODING 10005
SWIDTH 785 0
DWIDTH 12 0
BBX 10 11 1 0
BITMAP
8040
C0C0
6180
3300
1E00
0C00
1E00
3300
6180
C0C0
8040
ENDCHAR
STARTCHAR 2780
ENCODING 10112
SWIDTH 850 0
DWIDTH 13 0
BBX 11 11 1 0
BITMAP
1F00
6180
40C0
8440
8C60
8420
8420
8460
4040
6180
1F00
ENDCHAR
STARTCHAR 2781
ENCODING 10113
SWIDTH 850 0
DWIDTH 13 0
BBX 11 11 1 0
BITMAP
1E00
3180
40C0
8E40
9260
8620
8820
9E40
40C0
6180
1F00
ENDCHAR
STARTCHAR 2782
ENCODING 10114
SWIDTH 850 0
DWIDTH 13 0
BBX 11 11 1 0
BITMAP
1F00
6180
40C0
9E40
8460
8620
9260
8E40
40C0
3180
1E00
ENDCHAR
STARTCHAR 2783
ENCODING 10115
SWIDTH 850 0
DWIDTH 13 0
BBX 11 11 1 0
BITMAP
1F00
6180
40C0
8640
8E20
9620
9F60
8640
40C0
6180
1F00
ENDCHAR
STARTCHAR 2784
ENCODING 10116
SWIDTH 850 0
DWIDTH 13 0
BBX 11 11 1 0
BITMAP
1F00
3180
40C0
8E40
9060
9E20
8220
9E40
40C0
3180
1E00
ENDCHAR
STARTCHAR 2785
ENCODING 10117
SWIDTH 850 0
DWIDTH 13 0
BBX 11 11 1 0
BITMAP
1E00
3180
40C0
8E40
9060
9E20
9220
8E60
40C0
6180
1F00
ENDCHAR
STARTCHAR 2786
ENCODING 10118
SWIDTH 850 0
DWIDTH 13 0
BBX 11 11 1 0
BITMAP
1F00
6180
40C0
9F40
8260
8420
8C20
8840
40C0
6180
1F00
ENDCHAR
STARTCHAR 2787
ENCODING 10119
SWIDTH 850 0
DWIDTH 13 0
BBX 11 11 1 0
BITMAP
1E00
3180
40C0
8E40
9260
8C20
9260
8E40
40C0
2180
1E00
ENDCHAR
STARTCHAR 2788
ENCODING 10120
SWIDTH 850 0
DWIDTH 13 0
BBX 11 11 1 0
BITMAP
1E00
7180
40C0
8E60
9220
8E20
8260
9C40
40C0
3180
1E00
ENDCHAR
STARTCHAR E000
ENCODING 57344
SWIDTH 785 0
DWIDTH 12 0
BBX 11 11 1 0
BITMAP
3FE0
2000
2000
2000
2000
2000
2000
2000
F800
7000
2000
ENDCHAR
STARTCHAR E001
ENCODING 57345
SWIDTH 1112 0
DWIDTH 17 0
BBX 15 11 1 0
BITMAP
07C0
1C40
1000
2018
203C
E83E
7008
6018
2030
0460
07C0
ENDCHAR
STARTCHAR E002
ENCODING 57346
SWIDTH 981 0
DWIDTH 15 0
BBX 13 11 1 0
BITMAP
1F00
3100
4000
C060
80F0
80F8
8020
C060
4040
3180
1F00
ENDCHAR
STARTCHAR FB00
ENCODING 64256
SWIDTH 654 0
DWIDTH 10 0
BBX 10 12 0 0
BITMAP
19C0
3180
2300
2300
FFC0
2300
2300
2300
2300
2300
2300
2300
ENDCHAR
STARTCHAR FB01
ENCODING 64257
SWIDTH 589 0
DWIDTH 9 0
BBX 8 12 0 0
BITMAP
1B
33
20
20
FF
21
21
21
21
21
21
21
ENDCHAR
STARTCHAR FB02
ENCODING 64258
SWIDTH 589 0
DWIDTH 9 0
BBX 8 11 0 0
BITMAP
39
31
21
FF
21
21
21
21
21
21
21
ENDCHAR
STARTCHAR FB03
ENCODING 64259
SWIDTH 916 0
DWIDTH 14 0
BBX 13 12 0 0
BITMAP
19D8
3198
2300
2300
FFF8
2318
2318
2318
2318
2318
2318
2318
ENDCHAR
STARTCHAR FB04
ENCODING 64260
SWIDTH 916 0
DWIDTH 14 0
BBX 13 11 0 0
BITMAP
39D8
3118
2318
FFF8
2318
2318
2318
2318
2318
2318
2318
ENDCHAR
STARTCHAR FEFF
ENCODING 65279
SWIDTH 0 0
DWIDTH 0 0
BBX 0 0 0 0
BITMAP
ENDCHAR
ENDFONT
